<svg id="Layer_1" data-name="Layer 1" xmlns="http://www.w3.org/2000/svg" width="750" height="244.47" viewBox="0 0 750 244.47"><defs><style>.cls-1{fill:#231f20;}.cls-2{fill:#fefefe;}.cls-3{fill:#9e242e;}.cls-4{fill:#ff912e;}.cls-5{fill:#f41cb2;}.cls-6{fill:#f25511;}</style></defs><title>myntra_logo-freelogovectors.net</title><path class="cls-1" d="M704.53,355.73c11.2-3.8,23.66-6.25,35.21-2.5,6.63,2.26,10.23,9.31,10.13,16,.12,13.78.31,27.57-.23,41.35l-11.9,0c-.47-2.19-.92-4.36-1.39-6.53-7.44,5.89-17.3,10.08-26.75,6.55-10.79-4.26-12.09-20.43-4-27.86,8.14-7.58,19.92-7.63,30.19-10-.66-3.47-1.17-7.95-5.3-9-8.22-2.45-16.59,1.27-24.44,3.49-.68-3.82-1.18-7.68-1.56-11.55m13.15,31.93c-3.86,3.06-4,10.54,1,12.53,6.06,2.29,11.93-1.85,16.73-5.11,0-4.48,0-8.95,0-13.43C729.23,382.73,722.5,383.37,717.68,387.66Z" transform="translate(0 -252.76)"/><path class="cls-1" d="M394.3,328.18c6.67-.43,13.36-.45,20.05-.3,7.92,20.1,13,41.28,21.54,61.1,7.05-20.27,13.55-40.72,20.51-61q10-.36,20,0c1.93,27.55,4.77,55.06,6,82.63-5.14,0-10.28,0-15.41,0-1.82-19.68-2.62-39.44-4.6-59.1-7.92,19.32-13.46,39.56-20.67,59.15-4.81.19-9.64.16-14.45-.07-6.95-19.59-12.53-39.73-20.75-58.84-1.68,19.6-2.46,39.28-4.29,58.86-4.6,0-9.2,0-13.81,0C389.56,383.06,392.44,355.64,394.3,328.18Z" transform="translate(0 -252.76)"/><path class="cls-1" d="M622.77,334.4a123.55,123.55,0,0,1,14.07-2c.16,6.65.18,13.31.11,20,3.87.1,7.76.29,11.67.36.75,3.81,1.41,7.61,2,11.45-4.52.22-9,.4-13.52.49.11,10.07-.67,20.22.37,30.24,1.44,4.9,7.82,3.53,11.69,4.41.78,3.84,1.3,7.75,1.74,11.66-7.37.75-15.62,1.75-22.17-2.47-4.33-2.83-5.7-8.23-5.91-13.1-.55-10.19.14-20.41-.29-30.61-2.69-.27-5.37-.53-8-.81.08-3.68.19-7.37.33-11.05l7.81-.73C622.53,346.25,622.62,340.32,622.77,334.4Z" transform="translate(0 -252.76)"/><path class="cls-1" d="M491,353.87a106.53,106.53,0,0,1,15-1.79c4.54,13.29,8.57,26.76,13.21,40C524,379.2,527.7,366,531.92,352.88c4.79-.29,9.59-.43,14.4-.35-5.38,17.62-12.4,34.7-18.34,52.14-3.13,8-5.13,17.16-11.68,23.24-5.37,4.9-13.17,5.13-19.94,3.91-.64-3.84-1.29-7.68-1.89-11.5a61.85,61.85,0,0,0,10-.42c4.5-1.53,8.39-6.95,6.4-11.69C504.4,390,497.25,372.11,491,353.87Z" transform="translate(0 -252.76)"/><path class="cls-1" d="M555.72,352.53c4,0,8.08.09,12.12.18.54,2.52,1.08,5,1.64,7.54,6.2-5.13,13.65-10.06,22.15-8.71,7.38.32,13.25,7,13.39,14.21.38,14.91.16,29.85.09,44.77-4.61.09-9.21.14-13.8.19-1.3-13.53.26-27.17-.73-40.7-.64-5.58-7.55-7-11.88-4.76-3.68,1.84-8.65,4.4-8.42,9.21-.28,12,.14,24.06-.06,36.08q-7.29.13-14.59-.05C555.74,391.17,555.65,371.85,555.72,352.53Z" transform="translate(0 -252.76)"/><path class="cls-1" d="M661.69,352.53q6.16,0,12.35.06.78,5.06,1.61,10.12c5.13-5.29,10.72-10.85,18.54-11.44a65.14,65.14,0,0,1,2.12,14.15c-7.66,1.72-16.42,4.94-19.86,12.56-.69,10.84.12,21.74-.29,32.59q-7.27.1-14.51-.08C661.74,391.17,661.69,371.85,661.69,352.53Z" transform="translate(0 -252.76)"/><g id="_fefefeff" data-name="#fefefeff"><path class="cls-2" d="M74.56,274.59c7-8.39,14.64-17.41,25.39-20.87,12.13-3.21,22.36,6.35,30,14.44,19.94,22.79,34.41,49.74,47.91,76.68,7.35-16.37,16.38-32,25.85-47.22,9-13.76,18.33-27.81,31.25-38.27,6-4.6,14.35-9,21.8-5.12,10.58,5.61,18.61,14.87,26.09,24,15.93,20.48,28.41,43.39,39.68,66.67,14.09,30,26.27,61.3,31.43,94.17,1.53,15.22,2.9,32.33-6.31,45.57-7.09,10.37-20.62,14-32.55,11.93a58.42,58.42,0,0,1-26.34-19.13c-16.16-20-25.78-44.22-34.73-68.08-1.33-4.18-2.9-8.28-4.34-12.43a126.11,126.11,0,0,1-3.47,12.52c-9.12,24.22-18.85,48.87-35.53,69a58,58,0,0,1-25.46,18.1c-14.41,3-28.32-4.53-37.63-15.06-18.19-19.84-28.32-45.39-37.63-70.25-1.81-5.11-3.63-10.23-4.92-15.49-1.45,5.33-3.3,10.56-5.21,15.73-8.37,22.95-18,46-33.23,65.27-8.25,9.92-19.11,19.63-32.64,20.31-12.47,1.07-24.62-7-29.36-18.4C-2.23,462.88-.25,445,2.81,428.57,9.27,397.08,21.35,367,35.47,338.22,46.62,316,59,294.11,74.56,274.59m7.1,6.93C66.25,301.2,54,323.12,43,345.48c-13.74,28.89-26.11,59-31.37,90.68a85.22,85.22,0,0,0-1,26.81c1.06,8.37,4.38,17.4,12.11,21.75,7.37,4.32,16.87,2.58,23.61-2.18,12-8.39,20-21.21,26.91-33.87,14.76-28.3,24.49-59,31.84-89.93,7.78,31.73,17.63,63.3,33.18,92.17,6.17,10.68,12.72,21.77,22.84,29.15,5.08,4.57,11.83,7.8,18.8,7,7.78-.8,14.35-5.75,19.75-11.07,9.35-9.6,16.14-21.35,22.11-33.25,12.77-26.21,21.62-54.16,28.53-82.44,8.6,34.22,19.3,68.51,37.66,98.86,6.9,10.61,15,21.64,27.14,26.58,8.54,3.47,19.28.43,24.18-7.54,5.9-9.47,6.36-21.28,5.47-32.1-1.2-17.55-6.34-34.5-11.94-51.06A457.13,457.13,0,0,0,289,303.51c-8.31-12.82-16.92-25.74-28.51-35.85-4.1-3.6-10.18-7.07-15.39-3.46-10,6.08-16.94,15.84-23.85,25.05a416.21,416.21,0,0,0-42.53,77.84c-.34.42-1.06,1.22-1.4,1.64a76,76,0,0,0-3.34-9.09c-11.78-25.5-24.93-50.55-41.57-73.24-5.72-7.47-11.57-15.11-19.28-20.64-3.29-2.34-7.66-4.39-11.61-2.38C93.21,267.19,87.38,274.66,81.66,281.52Z" transform="translate(0 -252.76)"/></g><path class="cls-3" d="M81.66,281.52c5.72-6.86,11.55-14.33,19.89-18.14,4-2,8.32,0,11.61,2.38,7.71,5.53,13.56,13.17,19.28,20.64,16.64,22.69,29.79,47.74,41.57,73.24a76,76,0,0,1,3.34,9.09C162,342.62,148,315.52,128.77,292c-5.61-6.58-11.46-13.6-19.59-17.11-4.62-2-9.33.62-13.12,3.14-13.81,11.54-23.93,26.65-33.58,41.66A436.23,436.23,0,0,0,11.64,436.16c5.26-31.7,17.63-61.79,31.37-90.68C54,323.12,66.25,301.2,81.66,281.52Z" transform="translate(0 -252.76)"/><path class="cls-3" d="M245.13,264.2c5.21-3.61,11.29-.14,15.39,3.46,11.59,10.11,20.2,23,28.51,35.85a457.13,457.13,0,0,1,43.84,91.55c5.6,16.56,10.74,33.51,11.94,51.06a197.12,197.12,0,0,0-9.23-35.82,423.41,423.41,0,0,0-43.09-91c-7.79-12.23-16.07-24.26-26.11-34.75-4.05-4-8.33-8.16-13.83-10-4.31-1.32-8.22,1.68-11.68,3.8-9.25,7.28-16.5,16.7-23.36,26.16a488.39,488.39,0,0,0-32.92,54.2,44,44,0,0,1-5.84,8.34,416.21,416.21,0,0,1,42.53-77.84C228.19,280,235.16,270.28,245.13,264.2Z" transform="translate(0 -252.76)"/><g id="_ff912eff" data-name="#ff912eff"><path class="cls-4" d="M96.06,278c3.79-2.52,8.5-5.1,13.12-3.14,8.13,3.51,14,10.53,19.59,17.11C148,315.52,162,342.62,177.35,368.73c-9.61,27.25-21,54.72-21.67,84-.48,9.43,2,18.64,5.49,27.31-10.12-7.38-16.67-18.47-22.84-29.15-15.55-28.87-25.4-60.44-33.18-92.17C99.49,332.24,94.29,305.21,96.06,278Z" transform="translate(0 -252.76)"/></g><g id="_f41cb2ff" data-name="#f41cb2ff"><path class="cls-5" d="M240.87,278.39c3.46-2.12,7.37-5.12,11.68-3.8,5.5,1.79,9.78,6,13.83,10,10,10.49,18.32,22.52,26.11,34.75a423.41,423.41,0,0,1,43.09,91,197.12,197.12,0,0,1,9.23,35.82c.89,10.82.43,22.63-5.47,32.1-4.9,8-15.64,11-24.18,7.54-12.13-4.94-20.24-16-27.14-26.58-18.36-30.35-29.06-64.64-37.66-98.86C244.5,333.46,239.12,306,240.87,278.39Z" transform="translate(0 -252.76)"/><path class="cls-5" d="M62.48,319.65c9.65-15,19.77-30.12,33.58-41.66-1.77,27.22,3.43,54.25,9.09,80.75-7.35,31-17.08,61.63-31.84,89.93-6.92,12.66-14.87,25.48-26.91,33.87-6.74,4.76-16.24,6.5-23.61,2.18-7.73-4.35-11-13.38-12.11-21.75a85.22,85.22,0,0,1,1-26.81A436.23,436.23,0,0,1,62.48,319.65Z" transform="translate(0 -252.76)"/></g><g id="_f25511ff" data-name="#f25511ff"><path class="cls-6" d="M217.51,304.55c6.86-9.46,14.11-18.88,23.36-26.16-1.75,27.62,3.63,55.07,9.49,81.93-6.91,28.28-15.76,56.23-28.53,82.44-6,11.9-12.76,23.65-22.11,33.25-5.4,5.32-12,10.27-19.75,11.07-7,.78-13.72-2.45-18.8-7-3.45-8.67-6-17.88-5.49-27.31.68-29.3,12.06-56.77,21.67-84,.34-.42,1.06-1.22,1.4-1.64a44,44,0,0,0,5.84-8.34A488.39,488.39,0,0,1,217.51,304.55Z" transform="translate(0 -252.76)"/></g></svg>